<mxfile host="app.diagrams.net" modified="2021-12-13T09:33:35.299Z" agent="5.0 (Macintosh; Intel Mac OS X 10_15_7) AppleWebKit/537.36 (KHTML, like Gecko) Chrome/96.0.4664.93 Safari/537.36" etag="Zl4ObnuCJvlaN-V0dRfX" version="13.3.9" type="github">
  <diagram id="ZwBpjmQGiV112OpET_ug" name="Page-1">
    <mxGraphModel dx="2066" dy="2143" grid="1" gridSize="10" guides="1" tooltips="1" connect="1" arrows="1" fold="1" page="1" pageScale="1" pageWidth="827" pageHeight="1169" math="0" shadow="0">
      <root>
        <mxCell id="0" />
        <mxCell id="1" parent="0" />
        <mxCell id="dbKwE00AMvLlW4GOPXHJ-23" value="" style="rounded=1;whiteSpace=wrap;html=1;fontSize=20;" vertex="1" parent="1">
          <mxGeometry x="100" y="210" width="880" height="610" as="geometry" />
        </mxCell>
        <mxCell id="dbKwE00AMvLlW4GOPXHJ-22" value="" style="ellipse;shape=cloud;whiteSpace=wrap;html=1;fontSize=20;" vertex="1" parent="1">
          <mxGeometry x="90" y="-70" width="570" height="290" as="geometry" />
        </mxCell>
        <mxCell id="dbKwE00AMvLlW4GOPXHJ-14" style="edgeStyle=orthogonalEdgeStyle;rounded=0;orthogonalLoop=1;jettySize=auto;html=1;fontSize=20;" edge="1" parent="1" source="K8pgph4yIL8uZuw2vBNO-1" target="dbKwE00AMvLlW4GOPXHJ-1">
          <mxGeometry relative="1" as="geometry" />
        </mxCell>
        <mxCell id="K8pgph4yIL8uZuw2vBNO-1" value="" style="image;html=1;image=img/lib/clip_art/computers/Laptop_128x128.png" parent="1" vertex="1">
          <mxGeometry x="130" y="292" width="80" height="80" as="geometry" />
        </mxCell>
        <mxCell id="K8pgph4yIL8uZuw2vBNO-2" value="" style="image;html=1;image=img/lib/clip_art/people/Scientist_Woman_128x128.png" parent="1" vertex="1">
          <mxGeometry x="10" y="292" width="80" height="80" as="geometry" />
        </mxCell>
        <mxCell id="K8pgph4yIL8uZuw2vBNO-3" value="" style="image;html=1;image=img/lib/clip_art/computers/Database_128x128.png" parent="1" vertex="1">
          <mxGeometry x="380" width="80" height="80" as="geometry" />
        </mxCell>
        <mxCell id="dbKwE00AMvLlW4GOPXHJ-17" style="edgeStyle=orthogonalEdgeStyle;rounded=0;orthogonalLoop=1;jettySize=auto;html=1;fontSize=20;" edge="1" parent="1" source="K8pgph4yIL8uZuw2vBNO-4" target="dbKwE00AMvLlW4GOPXHJ-6">
          <mxGeometry relative="1" as="geometry" />
        </mxCell>
        <mxCell id="K8pgph4yIL8uZuw2vBNO-4" value="" style="image;html=1;image=img/lib/clip_art/computers/Software_128x128.png" parent="1" vertex="1">
          <mxGeometry x="620" y="292" width="80" height="80" as="geometry" />
        </mxCell>
        <mxCell id="K8pgph4yIL8uZuw2vBNO-5" value="" style="image;html=1;image=img/lib/clip_art/networking/Ip_Camera_128x128.png" parent="1" vertex="1">
          <mxGeometry x="300" y="650" width="80" height="80" as="geometry" />
        </mxCell>
        <mxCell id="dbKwE00AMvLlW4GOPXHJ-15" style="edgeStyle=orthogonalEdgeStyle;rounded=0;orthogonalLoop=1;jettySize=auto;html=1;fontSize=20;" edge="1" parent="1" source="dbKwE00AMvLlW4GOPXHJ-1" target="dbKwE00AMvLlW4GOPXHJ-3">
          <mxGeometry relative="1" as="geometry" />
        </mxCell>
        <mxCell id="dbKwE00AMvLlW4GOPXHJ-16" style="edgeStyle=orthogonalEdgeStyle;rounded=0;orthogonalLoop=1;jettySize=auto;html=1;fontSize=20;startArrow=classic;startFill=1;" edge="1" parent="1" source="dbKwE00AMvLlW4GOPXHJ-1" target="K8pgph4yIL8uZuw2vBNO-4">
          <mxGeometry relative="1" as="geometry" />
        </mxCell>
        <mxCell id="dbKwE00AMvLlW4GOPXHJ-1" value="" style="shape=image;verticalLabelPosition=bottom;labelBackgroundColor=#ffffff;verticalAlign=top;aspect=fixed;imageAspect=0;image=data:image/png,iVBORw0KGgoAAAANSUhEUgAAAIAAAACACAYAAADDPmHLAAAgAElEQVR4nOy9BVgUa///f9MdEtJ2d3fnsTuP3Y0gIK2IiqJigGKLjWJ3Yxy7uxUTxYBtltj373PPLKXo0aPPeZ7///pyXa9rdmdnZpd5vz9xz87MMvY/91eW6JaNjm53pm/Sh5nbDmH2RceyIpW9WflGU1ntDuGseb/FrNPYGPan3xY2fMZuNmHBYZ26bcPsGnUKr9Os+7yBjHUJZTrdNxoa9T5sXmDQFZdCo5+WreCRVKmq18eadfxSa9T2U1Wp7vOhfCXP925Fxzy2tht8ydi0zyGm020dY52ntOq9oF+zbvOqN+40x8Zv+UnmseAwG0XvM8A3lnUdvZq17L2I1W0TxirUC2RFy3swO5eRzNSiP9PV75nnf2CsEWH339ul//t/fOd8ITztRAPL/syCdmrBsh6saO0AVqHVDFanxwLWYvgK1nnSJtZv6k6dqs2nVXQuPm4YY1036Oj2fGBmOTC1dDkvtOwwD+O9t2DWkpNYv+82dp1LwIEbb3H04SecepaMv15KcYqTIEH802Qcu5uEQ1deY2f8YyzbdBEhsw6gV/+lqFknCDZ2Q5RkxDtkqNVuJccPqN16Zukxc/azAcHbWDf3dazVwCWsbqc5rGLjqaxoFW/BqKa2g5iuYW9GZmL/Z4Tv/vGdkkt4w17MoMAgZl54DLOv6MUK1w9m5dvOYrX6RLJmo1axOj0XmpRrPLUdLbuMeKJn0CezUDF3tOkRhcBFx7H+zDPsT0jBsWQ1jsk1OKYEjqpELqQBSRpADkBBPEwHjvDXcy0joKD15Jk4kZyGE4kKHLjzHtFbrmLouPWoUNkH+ga9M8lw9+j9F1VtHtq8ef/FRp081rNmg5eyWl0jWLnmoaxQDT9mW2oCMy44lOmY9GWMMtn/GSHPX96IZyS8ns0gZkrRY0Np3qXhFFaq3WxWtW8Uq9B+tm6xOgG017rFEB90dLrDqTiJPmINZuy9jS0vpDgg0+AQqXpQBnosTjlHSe14mn+SOK/KEZ+TQmY4lGvZb0IrHaQVDtP06Cc11lM2GeazFUVKuoM+D+cNsaRMg+AabTw2sAZDlrEq3SJYiRbTmWMtf2ZRyp3pOVCSMv3z/4wg/sO5hDfoxXQo4g2LjGUWlbxZwQZTWBESvlzvSG6AApYuIzwZ636XIk5jbDUQlXsswoit17DsjQI7SfR9Ug32Sgip9nHWc2IP8TRdA9JQgIsvzQWfd0klLrvvJ+DL76fssi85HWH7bqFOlwjoGfchI3SlzND9agG3USMrd5lnXoMyQpkuEcyVMkIByghGJd0ZK8iNQBlBJ7cRyv43Bfk3/3Klez1qlCwHMD230cykwiRmXTeIObUOY8V7LGT2lb1dzJ1HzKGdmUw7FaYlJ6DulN1wv/EeSz+kYUdKJnYTu76EhNlFYb1bIsKfXyaBudiSb/CSDLJTkrPO35OZ9zk3HpWMqIcfUX9SLPSchnMj8Kzwzsp15JTSHefYleu3hBXqMJfZNg5hJlUmM91i4xijppYZ9WZ5guH/v9kgV9Rz51NN1HEczgzKTGRmNf2ZTbNQ5tJ5HnNuMd2Rlokg4eW0HIxq+KHe8r8w7mEyIl4rsOVjOrZ/zsA2Ynvy3xNHy91P0yCFhE7WkpIL/vwFGSDuU4aw3a/4gffIzS4yx9xXCpSZdQisjIe2PHT/bO48MqRwm1kFCvdcyOz+mMVM6wUz3fKTGCPzM6sBYjD8fyEbNK5ekE0ZUfG78GXy/uWq9Xx4ROleh9K9YRUfZtFwKrNtO5tHhqmxwzA/WiaFumbo1vBHuVXnMeDOR0x+lIzV79WC+D9D3Kd0nKPI/EQi58dnLR+pDzhNDd9OMkHsB1r3Q842tv4kud9/2N1PMA0jI5SblNUnvDd1GDraqUmwgWPbGcyiUTDTrzaZ6fCy4DBcCIr/+d4gflkLhqt/fhdugpy/XCmf/4MU9bplPJhRrQBm0Xw6s+00jxnaD/mDouSxsJMqeMFmwQl0vPoOw24lYfozKdYnqbFBy8YfhC97QZGJjyTwhx+AG+IDGeERZYvD0vSfeq+NH75A+/6bqFQtoqxV/vgzsKl7wYqN15aG7tcLlhtRr1z7iaxI47HMqcYoZltmGDN3GcgMLfow3TxN4v+QCeKXNGO43EdL3/y5IiJ+cK34/B/iaa7QGKZX0ZsZ15/CLCgNUvTb0+trCQ2zHwpd722oGv8cA6+/w1Cq9REv5FhLkb/2fap2mvVYJCYbtcDaXPDnhyXpSCJh32tJ+g7vv1juuipT2M66b7D2fRrWJqUjhiJ9DeeTOI2h7BFD89cm8dfFzxHzLhWdLr6BXuwNsNHrwKwH8GyQTiys0bCnZfM23VjjRp1Z/WrtWc2SbVh5xz9YYcs2zNqoI9PX7Ur70P6/Kzz/a1zFnuFcL4YLxMXe+XOJ04fJT/VmVua5Ur7tYMaKj2d61XyZcZNpzKLdHKZvN7ilMHTS6wHWbi7MNl9H2/Ov0f9aIoaQARa+VGDlWxWR+uMk5mUFEU/R/JYiOxE/zlvtdMtHNVbRNgRo+6sTczh2bB2urR2HxxFt8XJmbSRG03TzMDzeMh43tnrjzO5w7Du7F7F37mDlKxlWvs/AyDufYbrtNtiqi2BNpoOXOsoGj6pWal9rTN8mbEyXhmz0H/XYyMZ12LC6ddjAanVY7wp1WMeSdYni/10DxM9vxHC6B8PZnmSEnqIZOJf6lMSF3iY4T4+JDJp3dllPVsiBj+t7i0MePgauGcCMmk1nJnWDDPTthswm8TMY75ZDD8Bhzz10ufAavS69wcCriVhAkb/0jfK3EP1aibXvVHiSocFrEvV7vNLygJrChEwNYhJVwjaWvdFOX+cQ8/gV4q6cwdEDS3BtxVA8X9ASydFNkbp3ODT3wqmxiIDm4QiknW8I6c6yeLm+Ia5uHIOorctRZc1eGG26AhawD8xmMM8G6qLO7SePbt9AN3JoVRY9sDJb0b8SW9evAtvevzQ7NrAwuzXcjiW7m7AGLrr/vvhT+pVmONqZIb4rw6nuDGd6iJzr5UA1/xUZoDH+6sEyiQ8HerB1Qd1ZqZIkvtMI6v88mW6dQGbUciYzrhfsQP/sCaHWNwkFW30JJfc9QPeLr9GNDNDn8hvMeS5FJEX/t4h6qaRpXqL+hsgXCpyUpeMlH/J9gxdEgvZxbBKPeNU3t704F1GvVFj0Jg2Rr9OwmIy75vY97DgRh8ubJiIptgUyLtWGRlKVtuoEqHSBJwwZBxheLbLF9umNMSpkIkpVGkQm6MGzwfap3WpZ7XEvx464l2Wn3Euzqx7F2ENPV/bWy56leFmyFA9Ttq+74b9rAM3etkxzsAPTkAk0J7owzcmuTHO6uy4u9jlE/QCo9kdpTnZjssPd2J113VnExJ6sct2hVO9JfBruGLaayQxKT6xMwr9gRr3ARq2FzoZrqHLoIbqee4nOf71Et7OvMP1xCuZT0/dtZP+I9YlKPKUy8Azf56l2GpekQgS93wJa9yue/z3zn8upf1HRlN777ClcWDMan1e4IOM8g0bGgFQihXhBxBsgdZk5LoxygGfNyiho1v7ewl7Vil7yLslu+RRnjycXZq99ndnHyXYsxceKpXias5SJJgINXP+FbBDcozjL3PlHjgmOdGKaY525AUZROQCVA1Dqf6s+1tX4TVxXdjKyOwuZ0I/VbDOWmTcOZAatwpiu7eDWJH4y9QJgMw5Ad/0V1Dr8CB1J+PZnRLxouDfnmQTh30X6YzzNYdELGe5T+n9MwubmyRfkeZ3MsvtTKsKfSDH3WQ5zvmDuDxKeoETEow/Yvn89Hs5vDNVKfWReJ/Ff6wAPzYAb9sCZQuS8wkiZ6YilbUsmzm5VttEj3yLspa8re+/ryD5PttVmALNsA/wrJkjb2IxlxLVkGWSCTDJB5oH23ASFEN8tGSe7gUqCgOxA1y5313Rhu8J7Md8JQ1j9Hp7MvkMoF5+GBN1UrOg4sKhT0I25hBoHH6LtqQT8IfAcgy+9xcxHKZjx25BkPw6jx1dpaHefhOU8+Ab3v+CeRoPwxxLMpKz0u5hB2wt9psCSi5dwcUFvyKYZIm23BTSXHCkTFIVmb2lkbimPtJVloJzulJ7sab76nZ+9wwd/ezJAATKAhVACUqgX+Dt+izEalrJk6rWNWdqmZixdMEFrlrG7DcPhjutwpBOoLwCOEce7cI5dXtqVbQzry3wmjWTNBlPHX3DgMGG4U8kbbPlZ6K6+gGr7H6DViWdoyYl/hvanExB87yOm3v+UD58FQr4iOZup91MQfF+KoPsyhN1NRMT9BGy4cxbbbh7FNNoGX+YqNXV3SVTOvW9w9wv2Jadq31t8n2k/QciDFEx9KMWUh3JMeaQQCL33CWG3qce5/hQLLt3Cjm3zkOJujOQJJpD6m0G9xgmaXWWQvqE81MvKQhlREvLphSDxsX6f7GXWOSWY0r8vpX9PrQEmGpMZCE9ikjGTeOXCm+ZNMP51E/i3c2WqlQ2Yep1ogrStLbgJqlI5SMe+dtAQ2N8BOEAc6pjxfGOXqutn9Wd+/mOZvUu/wUKnXyuAxD8HnRXnUWHPXTQ7+gRNczH2ylsE3PmQDx9F7mrRPg8Unn8mPmHRtWs4fCEGdy9NQdL1sUi9N4QKeT88ehCK8NtPhGUDaZ1LZICbJCrnVj7czIcj0jRhXU7Q3b8n8B6Z8dYbLDl+CFu3zsPxFWNxaX4X3JtRDy/8S+OttzM+TCoAStuQeZhCsagpZPNrQzajBFI8zZA81gASXwukLilOUAYILw5ZiAskfnb0uoWG1lsqCTI1lgSSuN5a4TleZAYfEybxJfwIfy3eZoJZGrjo/HMDyCKqMUV0HaZa1YClUiZQb2hK5aDVtsztrZC5vTWoNyDXctpAs6cNsLfdxk2z/mTFivSmMWC3NFbVF2zZWbClZ1Fi2y00PvwYjQ7l0OHEc/jeTMLkG/lwMzcfBHxufULQtZfYd3gx3m3rRO9bn5RqQfWTDHilOzS3e+PojTXwufmRtvtBWHf2I8oANKS7zg/ufAe+zBXiGj2+pp0Xr0zH8pcy+NG2fP+G+Sfi8TyoNOTTiiHz3BRoXu2EJikWmvchyHjYHmkXikC1xRiymYaC4IpVNO9iFDQpJ6FRHkLGkxCoj7SFfJ4LZMEFoZhRhKZOkEwm05BhuHGI05IpxnaSKUYkMjeCKZNMtqbHNkwSZMekUx2ZdJoTk4Y6M+n0okwWXoHt66H/zw0gCa/C5ItqMsXSupQJ6nMTFE3b0DSVsgHSNzdHemxzZPChztaWyIxrSYK0yhjfvsMkEl/ByniCLTkDFv0XnDZcRYODD1D/QG4eYuTFN5h0/d03eJ8HL5oXt3MhUhZWQubiktCsqUzjtdrAnsZUisiMZ9pj86Vd8LjxEV43xHUWPU/BRWoAL5OYnCv5wMW+QUQlSLHitUyYdzYtE/skasSr0nFAqobfrQ/CNvNA2w+mTOWV9RlvfMAkMt6Uc3cQszUK1+a2QTJFd1pcHWS+bk5bLQpoaBiYRiMB6v7Ve/Upwo0EYRVLayEjwZuW8Sf6QvOxJtJOOEE+257MYp0lfhb3pCFGztJplOoDTQXhqSSUlwQ62EinF2GyWSVJ+NJMNrci6daESae4MN86/9AEKTMrMillAXlkLaZYUpspV9T3V61uANXqhkiNaQQyBKg8QL2+CSg7gBpGJEQ3h2OZ4WALT5ABTsOC6n6dvfdQe09u7qM5ZQD3K4mYkC/vshl/NQkhJy/gUVhtqIIKQDXTBeqIosiILgtNTBVgSx1qnhph3V/bMO7qB7hfFdeLfC7BhUyIaPLngCwNsyhDhFOD5k1ZZ3OSEpdoPl93PH0Od+1nmHg1H2j+nhQ19krSsOINDfuepsCHjMFfc7/6HuOvf4bv+YdYtykCD4KrUU03RsZ96vqV1P0nEc8Mhe4/Y1chinZK8xOMoFxfhrJBUzJBWcIGmnQ9pJ3Xh3SqkdAr5DLBfek0E0fpNFOKeDsmm1fQImWc8R7p1EIFZOHlmDyiMpMvJM1WtmbyqHpMSiXjp//quRqzzyHlmGR2ZcEE0gXVmSKq1lkyApTRdaBcWhfKZfWgWk6srA8qE4Ix1DENcSumKwouOQJ9iv4qO+6g+s67X9GLuv/RlAG+xRhi5OV3iI5bjk+eVpB4mUPqVwCKqfZQhZEJ5lOqXVoOiKmEHQcXYMSl9xh18a3AiPNvEfdJhTPpVB0y8vIXcY5McZbSvf+tJIy+lIgxxIgLb7GXov0vem1xggSj6PkY7WtZjKZtj6T5niTylo8qxKcBJ1JFjqfyM4cy4H1dNMGEy4kYS6ObMTQdffk9Zh46jDNzukJGRtDwIeAjc3KhC7mwJDI2lYdqQXHe8EE6xQIZL2lYCAPKGEzMGFLKGPv0KBtQ0+iebYKr0hAzS9kMeyYLo8hfYD1GNtVtr3R6cV05aSWPqs8Uq9syZUwnJg1yoiyg93MGmFTbkn0MLMWSp5dnyWEVqRxUtpTOrSYjM0A6vzpkC2sQNaGIJBbXImpDoTVG6rK6uLOsHeqvP4pK226jMtX/8tsfoOKOh6i88wFq7qb0f+EdRl3+gJEk3IgLiRh+/g3xmsR7hVE0HXY+EavWhUPqTmnSg//DZmQCC+qYs0zgirQFxfB+zwjsU2RiwbMUrKJIPCjPEDieqkE8iXIyC7XIukQF/ChSfUio4WdfY/i5HPi8g7J0Wl6DOZQZhtHrw86J8NenUeO5/p0SR5SZOKrS4KhSQ49FDiv46WiEPBMH6P0jnqRkr5fFUPqfvY5fwf6oUZBG29IIypV6J+r8Y7gBSlH/4IoUbytQV4+MW1Qu0skACiKZ+MCQeVsX8hkmlA2Ms0ywWxZiqyefXZTKQcHi6ZfCNNJgxwnyBTWZfEkjpljTkali+zL5PApgD5OfNEBNC5Y0uTj7GFSafZpaln2eVq5q8owKSJ5ZESlhlZAyuzLIFJDOq6pFa4wFojGUS2rh45ommBK3FHPXT8PRZV1wLaoW7i+pisfLquF1TF08o9LxaGsH3No5DKd2+2PbgUVYengngk9cwpKNiyDh4k80FUjOSn9kAhk3QQg1SvNK4cTHtzhMghxUZAjTIyRMFkdzQyY4RnBhB596iSGnXmHQyZcC/PGQ069o/ivMpOHaMTIAZ1OSCvOfJAts/qCibWiE9zgkvB/BxZZlYr80Q2AfsYdPKRN4UQkZStv8GnrPM28w4ch17F06GoqoIkhbTsO+OdT1BzmQ+BbZqT79OpUMmSg+XhNPDaG5YwXlYqtsE0h8zKfL5xRjshnF9BUrW71UH/WRSEOKFJZHN2EKin5V3CCmWNGaUXZhvnV/ohfwrG7O3nkWEUyQ5FuCfQwo1YHMgI/BZfBpSlmQIahjrYDU6IpIW1mJhi6VIJlTCdK5laGMqozM5cWgWUR1bJ4RMJeIMAUWmEGz0AxYRCwmlhEriNUmwCpKjYuMkD7VAKmTDSD1MBJEzyJrpySTGXgmkPtZ4ebx+dhDO3svF4ALQYLsV4gc0MKFOpSLjSSqJ6XlURTd698rEf1Cij9PJKBf/Av0pamQRYR1MwQOasXmUb1fJoq7Vyv0bmk6dks4aQI7qSfgbCKzDKTtDfguCfjz1GuMP3ARZ+d3gjLEERJ/6gU8zLK7fgml/AxugkQS/7k+cN+CulYqD+fckLrUQTiOQMtl0EignXx+JT7sO6Z5f5xGD45ximXNmGItGWDHYKbc0JVJQ9xYsrvRTxigmhlLHO/G3k0szN55FGHvJxUdluRdDGQIfJhcAh/8S+JjYEl8CCiFT8GloVxQFuroclDPpdQ80wJp082QFsoxFR6nzyBmmiEjjEwwl0TnRliiNcFSjjkZwIwaPRojTzaBnOCpPzlvByxCO+hzgBN2f0zGLtrxAjRu352FVpA9HHq+l9J6FvtItP003UVC7SdRw+5/RI8jz9Dz6DPKBC8QS7V9D4nKyRGYlqfHWe+1M0VkB7GdtrM9WY1tnM+piCMWPk0Wttf7WA59jn4Deq3H8ReIiFmAj942kJABJJ5m2UaQTDZG5j098ZDxTSob552p4SgG7C9NZcMlywRvZLNK2SaPN1icdmUR1IcnZcpmlqqr3NCZqXYNYsrtfahRpFI+8ScODnEDvBnlxN6MdmZvx7iwt+NcPRPHuyJxghveTSyE9x6F8d6zCMgYeO9VFCmBzkgPs0BqiDmJaA6FPwnpZwIlTZVBJkidYgI1GSJjFv0jEUQUGSHSDJlzTZE5j4wynYwywxQybxNIvQiaSjzyEZ9D//SddaOwJSUdW7U7PS45lURIJUFy2JENRaZEnR2hO7mIxJpEOQaeTBChiFz3TiEst4OTIrI9C0Fk8T2yhI77lIqtxJaPqYJxOLxU8CzS/dATdDn4BN1o2j0X3b7isUCXw0/Rf/MhPPMtAqmnqWCCLCPIKYg0twoAF52okSlCjWMpaLaVFY4ayqdlZ4JIivJxqVt6QyO5TvvP8oByE2WAvQOZas+fTB5dnaV4mbPJtX+wDHADvBpSkL0aWpC9HuZAFPSjKV6PcMSbkU54O9oZZAwkjnOGxNuaxDdH6jQLKAOpW/cyE6KXiyjnJgg0ESJbGWCCzNli9KfPMRWiXBBbKzifCqnP4zvi89fH6+PwlSNCquU7fLOw81MFuBhbuDCfc4jLZZLcbMtFXK7lcq/LBY79lJq9/dis9yQ20bAxi43EBi28tCx9KaXe4TPmPvqMTvsefUXHfQ/R6zCZZL/4uNP+h2iy4x4axhzHXd+SZAIywCRzMoG50ACrVpABzhYGDpeEZmcZZGykbLuyHFSRpWn/W/H9okpxNxkrn1eZRhDPoVzTKkM2r0JF1YEBLPVgX2oIazNJgA2j3uHHDfCiv43Aq0G27EU/G5+X/W3xcoAtXg2yI+zxbpSd0LTwyOfwyOcpjDdtssmi8Fx0QVgavqhDyMkU/aop3xZXjPC/eX2MAfbFrsD6pFRsoJ2dxcakHDZ9yMtmAdEsOSi15BI1N9Qv5N6mIK6Wde+1vOMnnCgRQ9mDs+atXGD1WxllAhnmPPyENrvuo93uB2i3R8vu+2hP08UJKeh79KnwnNMw7jZKxVxBlaWH8dK/sDD0FSAj8EyQEVdYGDVkxJZD2ppySF1MpXdeCXH0IO6b89KpNLTUnEHGvXBQSViQergPSz3Rhyk31WHS6Q4/bgCPqmSAvtbsZT9r9nqgNXvR22rs8x6WSOhlhYTe1ng3wlr4cKqpFiQqpf6polOFY92+lPKniiUgSzRuCA2lem6IvxX4b/gw0hBX6zpg7dO34g6nVL7mnZwEIN4rsFZL7sfrcpOUiy9fy15HLhCTxTvt+yRmCSwXUr0APV75ViEcEOIsfy3DMs4rKcLJAENOPEevg4/Ravu9bPpS9C95KUEvSv8tt99Fi213UX/zLRRfcQmFiaCDR/DZh3oCbwsRMoEs0BqZcST+uvJQLy0D1fySUIQVgWyqc1YW0FCDrNGkbgLUGyENtH2t3NLEOPVMD6bcVpv6ACdqBI1/7Mjgnm5UAvpZstf9LdmbQZZkAPNeTzua4GknU7wbSuNx+lCyySR+lCXSwkSHCoc1qebzJo9Hf5bQ/OBF+kxTwRS/InwW74cY4kYZhlPjumFZolLY4SveiKx8w8XgosgEYVYl0pREW/2DiMvLhPVXZvEmZ/v8cDEnW+TXUiwloXnKjyZBOVzYxUTUC5HFnAQJBlDT13jLbbQmwUPvJmH+008IvJGIIfHPEHj9LQJuvMWYiy+JFxhz5Q2Wb1sC+STKoD6Wwv7m5UAZUUhM/YtKQzG7KOQhLpD629Pw2ErcP9Q/aGRzqQwshWptTciXlm2ivtCReoGaTB7lxFImmTDfv+sDgproMxKXJQ4hBluwd8Ms2IueJo0etTLA2wH0gSbzD2QJFdX8jEUWwpcb4rCFavx8SvHBXwjtwWu/KaSTfl18wQCDyQDlGO4RB+YFYjE/9492+NJXWZAgJMwyLcvffJtluZZb9sXzpVlot5slbrbAL1NI4BREZkEpnX//wFn4PBkLnhE0Ioggoec9+YRZD5LQbuc9zLj7nkrDB8oOIrOJsPsfMOU2P/T8CqPJBKMuvMCwi69xemEPaowp4HysKMotBXjdV84tTs2hG0W5A80rkB2AHM1nT+F7hfRrnagMGEWor7RgqUeqMsVKR+Fbw73d/uaUMoV/ASbztWIfRluwpJEETV90Myr0ortBumyyFRlA/DBp4RZQBJhpx+fU6AVTpM/9Osp5D6Ce9nuin5M0TDTA3YoMj6owHJzni0UUgRxRjGRBnMX58SIf8lmOr8+3E/kyR+BFCVkkCwJniTyfw4V+kkxCf8a8x9T8CXzCnMcfMefRRxL6oyD0lFuJCHvwATPvJ2EmGYGbYToReuc9fK+/EcQffj4Bw84lYOhfzzEm/jYSA12FfS5AZpBPdRRTf7AjDRNtKADN8+wfzae+ZIBBNO3Kn19Ou16bpZ4szxTrCzJJsAn1Ad85KujVmH/VaM1kxOeJluzTBEv22d2SpUy0rkEuTJP6WosG8NKmfk/T7M49Y55pdif/ZQb4Xlf/s3wcbYQb5ckAlRgeVmNIIO70qogD0aHYsncbVp89i+XX72LZzftYci8BK2i6+MErRCTIBMEWPvuMhZSSF2RF6RcIgtIynAjO089iFGsjmTP3yUcSmHgkMocLTMJyZmnhUc2ZeS8JM4hQDok9jcSeyrn9ngzxDsE3OYnwuPQKw0j0waefYdCppzQ8fYp+xPxNS6DwNoPUtwBhJZQEMfVTE0465N43fD8jmX/72BLIbA5ZqJVaEeNkoz5bnCnj7KgRNP5+I6j0o+inDCAPKMCosRCQ+Zqb05vfk9EH4Ig1iepRsNjx8+jnw71UGq8m/2KD9yN8Hm+cY4CqDM9qMLyqw5BUjyGlAYOsKYPyD12o2+shvYsRMrvStAHadIUAACAASURBVJcRHoZ0QuTVe2hRuym69B2Jec9ShCjNYg7nUV54E8ejV4xgLvLHbIFncYF5NGsjegYx/R6HRL4rEkJC89SeI/Q7BJHYvPbzmh9AUe9P+F17g7GU9geS8ANI9P7xT9DvxGP8efwxeh9/gsuzm9G+txZNwDOBn432XAGzvAaYZApIK5EBOBWgWmMLxVq7RuqLLky1h7SdYyQ0gvn+BTY3Y4pAGxKfCKSFAygTBFozZYDFAplfARK5gPAhhK6Uj1M9co7Ry33FHuA/Lb5QbtyNcatKLgPUFA3wjsT/2IRB2pxB1ZohvS2DpiMDOhPdiO4Mx1pYwMGoGOz1XDF53wVRRIGk7IgVopanaK2oWUzXChxKAnOmaREe33mHEBJ6qiB2IoKJHKGJ64nwv/ZWwI/wvfoGkwmfK68FvC69xFCK/D9PPMGfxx7R8PAhehO9jjxAz8P3MXzPaXz0d4CMhJdpTcDL8FcG8CEDpDqLp6GjINJOkWnCLIaqr9qy1MOWTB5pJBwRzD/6pxRkiiBbEt9GMIJiSgF6blON3jSNTAFVSAEop1hB5mOefbw6ywC/M8X/Pca4WzPHAM9zGeATGUDyLQP0oJFDc2NY6BaHGXPG+K3x2ZGaHbFZ3BGZSsIKEUwE3xIJ0kYxZ9iJp6i75goJ+lqI5pyIfg1fDs2fTI3d5Muv4EN4U5r3uvgKkwjPC5yX8Dj/EuP+eoF+xx6T4PwAEYl+6AF6EKN3HkNXmnY68ABz1syDghpwmZ82E3MDeJppvy3V9ls0+kIGmQBGhCEyHhpQI2gSnnbdgqUeN2Xy5YbCqWRfDQX9m1mS4PYkuJ1gAoEpNiwlsMAJeQClkWBbaBbaIH02daJeWtdNMsnz5v8WPNM8aKSLOxXzzwBZBkjjBuiQ1wCpXXUwp19beM5ehCCKzJy0/DYHmh904202gQJv8gjsTymbp/AmG66hWMQZNN1wHe5nE9Bn/wP0O/QQk0hYLrQgNj0WhBbEfoGJhDs1eROo3o/nnHmGoRT5PQ/dR48D99Gd6Lb/Hjrsf4Rj4Z0QuG4V2u+9h7Z77uFGaG3KtgUEE0gnW0MRWRfSmWWyvzSTzeDCM/FcAkLzgfbHRONNadeNqRE0YooYMoCX8ddDQVlIQdEAwTkGUAbYNBPED7RFeoQtsLoAZQHz7LrPx/r5Nn3/As/b6eUYQNsDJObKAEpugDZaA3TSGoCzYSTtmA9Y9YSn4VffhketFp/LubjEo/ilgBd17J133oXL7JNwDc+BP28Qc1UQWxD6LBc7gYR+jnGnn2MspfoxxOhTIqOo5vcm03TZdw+diU5776LDnjsC7hvjBKG9Y1aj1Y7bmLx6KZSUgYUMQOVYtaUfMl6d0JZGEygWGVDzJ55IIpBK+8PP6EzadX2mPqXPlBsNWIrPFwZoXNSYxCcDTLVnyqlkgClEMBlgil08GYHSPkX/SltkrLDOM+bPmGX6r9X9L3nT2wB3KogGeEoGeFmdDFCX4QM1gpImWgNkZQBOXwvgXBT4xeCXPrwRonHSxVxcyIunlqzXPbXRK0TwOS6sKG7f/ffhMCMeTmHEzBwcZ5xA9113MUYQ+SlG0XTkSc5TjIx/hhFUOoYTw6jBG3jkMbqQ6B1330F7ot2u22i78xba7LiFVttu4UF8GKR7x2DI2u1ovuUangUWF0zBTaCK+UP4n5QxnZAygYbi6/RF4ZVa1NQUTzd8nnZNjwygx1Sx+kziZ5z3S6GgppYkvANTUhZQhZIJptnzbFCHIl9DJqCot0M6pX/lNIvspkPqQwaIMPuviM/5ONJIMMB9ygKJw2tAfXUTMhLPIuP5UaTFekLt2wTp3g2hCW0B7PCmodENpGYkYnvCK4w/myVg/kw4+0KI2vEUtY3XXUH9NZfRPu6W8HzcmQQxiimaxxBcQIfpx1CQM0OcOoSKuIWdwACK7OHHSWxaji87lBhy7AkGHyVI+EGHH6MbT+8U3W1J8DbbbuIPolXcDYFmW29hzTIfEvIh3u4bj1br/8LquSMhp1GYYILQImSAN5QFDiF5nCHUB/QAOQkv0UKPKStIFCsNTdUnuAEMhDOKk91zri5iqmlOggFUoQVZ6gzRBIqpDuuVwfYU/fZCBpD5UfRPEtM/F0Dmbwr1rH9n2JcvNBJ42sEZsn2zKaXnvuDrqfYyT36Bt3jFv4Z20M1PLxFwUUy3PCq/x2g+/j74AHVXXYTtlCOwnXoEBYIPo9n6q7Q+RXH8UxFtFLuQ8HwZAVreTovtlMMoOjueRH5IPMJAmnK4KTj8PXpTrW+7XRS9dRwJv/UGWm65geax19Es9hqabb4GzyWUuRLWUWTfx5zYSAxYEUsGMBOG47IpjvT/PxFMIAuvgvSLOsAnEv6jls+UDVcaZCqiDYunHjRgyvWGTBJgLAwFcwwQyqOfDDDdgaXOLMjk0+xtlcF2cjIDVNPswUcA/M1yDzlkNNxQBPy+o3s/S/IEcvtRP63wD7TTrMs8E7TX+77AJ+UTzL/5DEMo8oafEBkh8FiYDv8SWq4nNVtmkw/A0u8grPwP5aHn7rsYcvQRhhx5RBH8SHhcbck5eu0grPOBb6M6vd7v4H30peaOl4w+VOd7cyjy2/FoJ8FbkuAtiOYkeLNN19B041VqMK+gyfor6L5qHzJPewkif3i9C4X9NiPB24GGfOLpcVDxy1teIe38LGTeZ+IZRJw3xDtqiDcYQB5p3CB1pxFTrjLSZoDcBphG4mcZIMyBqac5DVWG2EOz2BHp8wsKY0/xy4hc5+bx7v+/VP+zkPjaIzPpKEUAGeDZViDeFzgVCFyejfdXlmLzhZOYcOSWEH2DiSHfYXAuuMhmPvtgMXl/Xnz2oxil9e47qUGjSB1IQ7P+JGirDVdh5p13ectc2AQcRA+q7b1ou5ye1Bv0oOaxE9X35htJcA5toyllmCZUcnjZabz2MhoSDdZeQr3FRyE/1kdr8itYu3gQrk0qLp4pTcNCyK8KZtcorkGTYAi8pCzwQpfigHihD3WsIWQRJn1UsSZMES1eQfRFCXAUmSEaIDXE4Zh6NqWWjc5QTbeHjNca3nn6/Peavm+VAdm04tCcCgLiBgA7hyLtwARsPbSZIu4e+lCK/ZMiL4t+B77Nnwe0y2kfO1DKN/bcmy9Gnntg6rUPLUiwrlS7HaaIy5pM+hpjWtYl5Ag6b7uNLtvvoAtNO5PwHamnaEZDyCaC6FdJ8CtoFEOiEw3WXKJRxCU4hxyCycRdMBm1Ge/jGpLIa4hwaO50gMxLPFmEZwEo42n+bdEgiTVpYgI8MhVPIyPUW8z4dQUhqrVmTDbH1IL2XdscA5jyEkDiT3ck8YmZTnaqqQVVaRFOyFzrTGneVvgmSh1qjtQQ03/5gM8PlAJ3I6jmVgUOukN60AuBe+LRffc99NpzF70plffOnv44fF0e4aYkoIH77u+wC0YTxem3ljGnzNBx6010IsE7brmJjrE30S72htBP5BF89UXUJ+quuoAay86h/IJTMBq/A2z4VugPj8XzxfzQbmeCGtv08pAHW4kG8LUCMrbTfMqEOE01fyJwi7ICP4Xslg1hC/Vm4SziWOUKSyYNMetM+81fuMrY00y43wBFviA8S53txNSz7DvxM1TT5jgjbb4TFEE2lAEsoYkyh3qa2X+v6fu7crBrPCbs/Atdt99G9y/ZkUOPfMj9etY6XaghM5ywE3rjdvwShmSOklQ2Ss06gaoLz+APivpmPLVTg9lgJYm+8gLqrbiA+isuws53LwzHbAMbtgVs6GZYeOyEa8hB2PvvxaPIUiSwlfYIny6UK8TzAyQB1sJ3/2J2WE/j/nlUAu0JyuCXnAhnqNfZcgNcVC4uwKN+gQC/0QS/34C3NRPFDyPxyQDKaU4LVNOdkDqDVpzlQFMbyAMpzaw1p2xg8stn8/xHxKcssDusN9puvUNRdgOdstiqJS6HzvmQ+/Wsddpvvg79MRSBo7f/OqNI1JHbYO21B00p2usvJ9GXn0fdZedRh7P0HGoTDr77YDgyDmxQLAxGbkWNxadRPeo0qkSewpPFJcUjfAI6UJ/gh4CpLE+zo+fU92AKMZ36oTBqE8gspwtTP0ScLgL1yoLcAG/ks6wNKPKPUtrfnOJlxSQ+BZjE105rgFnOZABn3gucTZtN4hOZixygDisAJT/tay0/N+2/L/a3eOXlgA4bL6EdddACJGD7X6RG5BkYj+NpOO6X0CGqLDiNRhT1ouii4LWWnkWt6L9Qcwmx+AxNT6Pc3OPQJQM4UjaoRsJXWXQKlRecwPOF3ABU2zWUBdLtkHHNAfwUPOVyZ+GCUqA/MYQYTWm/FnC4hHACKSd1iSM3QKY0yMpZ4m31WOJluT/Fx4aawYJMEugsGkBNBiATGFD0J2lWuCFjgQs0Kx0o+q2FDJA27383/XPkEwwwNnotWlMz9ce6HFpr+eMHyb18GxqCufjvBxsS+0voDI1F7SVnBWqR2LW42FFE5GkyGUX5IpFqnIWnUGFePIl+EpXnn0SlCHo89yheRZCYSorslAo0tKuMzKsVKBubQrmZf+tXV+gNAH5haWvgeR1odpWGZncZAVWEo9AwSwMLtJAGOH6U+NmflPg7MEmwK/UExXIMoA5zKZ6+0DkzY3EhpEe4ICPaQfzacZIZJN7/fZG/JPdFI1J3Qyyc5YGmq6+g2apLaLb6EprnZs0Pol1eWH/NZVhTH8D6bwIb8Av02whzSu2lph8RRV/EOUWiEws5ovBVSPDKEVz4eFSad4I4joqUESrP3o+kOcVpSNeIOvxmwM3myDzeACnjTZF2lvcFLgSle9AyIOGTyyBzUzlkxpZDxpbyUIRlXTtgvEYxtxI3wHlJsBuThpZgspllyQBhPP27UAZwqaae5YS02W5UAlygCuVDQKuvvnL872Mqfh2dfeMEPjXGruAOaLj8Mposu4Amy7Ws+IfwdWk7NSl16/YjEf/c+DV8/vfgy/RZD9ab6LUelmO2i8JTh1+NqEqC86m9xy5YjIhDZR75c0n4OSR8+DFUEDiKytN3QzKnGDV07YEzbYEDrZCxqR5SJpgh/b4+ia6vbQ7518A0Aki1Qfr6skhfWx5paytANsVO3E9kAtX6TvwM4svSaSR+eCUaFlZmYv0Pd+XT9qnUAKaFu2WmhrlQ7S8ongAyyfyriBPw0J4E8i+YI+cAlKn28ilz7dUz5uI5cTTvvF9NqqnUYVOabRh9Ni9UbxtR3f0W/PWv1lkiTivOOgY3atBcJ4u4+OyFOa/vvTaQuN+ABGc91ubBsP9GFAncT+IeF4TmOJL4fL7r5L0oQeN+69FxKBZ8AOXDjqL8zCMoR1Sauh2qcIrwPa2h2doMGatrIzWirLAf+KXjOc1hDmkbSiB1WVnhfkP8W0NhH44zQFq8P398STqrApMtrMtkETW4AVyYeo4rzwR9qft/khZeKEU9yxWqEOoB/AsIR5yyvgPIDW8K+algMp/fKzY3Fb8wMmm0Md4ONcarQcZ4M5Q/p1TP768zyRhyL/FYOEfC8bbAHd/SqB55AXUpzdaNyp96+ZD9+pfrRYrUEeafyfO8JtVo3V7rvhKZdefE5E83omsM9Gi9ElMPwmrUVnq+Bq4+e+DstVt8vcsaONHjcjOOoMz0wygTehi1g9YjYxb1ZKtqImNxRaTOLgZ5MAXnNBPxq9/8DLCDMviiUlAtLC1cTCtmACOkP9qI5LH652URtZg8ujmTza8lGiBtriv1AS5dVWGu49Lm8h7ADarpjpB6FxA34JGPATzEq31Sp/yuL4WM8bCbAQ5X0MV6a4YVhgzL9BiiieX6DDHGDCENm2DUrAVYEToI9wPLQeFrBbn2RNX7fqWollKTReJkszAvtfPhy2XyrE9wsWtSXc6Nq9cuQTzWLRddf4LOqwWxOVY05NOheQa916FIwD6UnnaIOCxMSxGdgxeRAZyRTmKmzSkqXEnMvwlUrjDKV3zBAIfsoAwvBuXsotnaSacWQsar/dwA8fLFTZliVXsyQE0yANX/tHluTDmD9wFuUzMXFUZmVGF8HGOHxAHm2Qb4sgRw0fnp3pnhv/alEDfSvU4G2GhLYuuIoi83IAMQK8kEq40Y1hABVeujcvgJVJl9DJXCT6LKnHh0m7UWa6f1w8uAorjnXwqV5p5B9TknUH1uLubkUGNufL5kL/ON9TjViKqzj8OEmjrWafVvx2zQJpQJOYxSU0j4KQdRikpByeD9GBA4kwxApXluUahnuQnf0Eq9raE+YfBtA5ygwAgtJJw9LGplBFVcf2Tc20ylQH+ffFUHpljXncnmVmdC+lfPd2O0MFPMdN2sWV4EmiVFcKMavwqHp1kLMoFpvrWep39+pa/0H44S3g4zwnZXHUTrilHOReeRv9JIKzxFfYwpGcPOCtWn7kGlmUdRaQY1RjOzoEYpjMShWtlk5g5UCTuGql9CNbzaD/LVulqq0Htx3CZRqm63CqzD78eUjFViyhGUCCLhqVcoEbgPJSgjjPYPQMZsZzJAkWwDSCZZIZPfZyhDF9DoZJ8CJkAGSL9gChryibeZc+f1Xx8Zj7Yi7fw8fs3gVsUGfr1gXyadXYkMEOHGUglJoBNLm+16G+vIabML4YiRDj6MsBIuAeOXfEnyOf1LyAKUAdQzfq4M8Kh/2NUAq01yhM+K9tUk+hqav4aEjzFjWE8M6DIS5acfRUWqiRVpOMWplB8z8lKZm+UfkGc72m3z+TZDt4C1XfUfwWzQVmwJao8+AXNQ1G8/ivntRSG/fVgQNAjpNCpLm1sY6jBXKILtIAuwgkZiDah4129BmAFqCsY0KgsZhki/xm+pYytcvyHs7yBnaNJfIPXoJBo9GC5Wxg1lis39mXR6acbSFrox1Vw39snHkaXNcX2DjcXwup8d9jOGDyPJAP4WwnV90m81eyRmerjZD39TyMW/29FAFN1AjPZVuYTnoq81Z1hnwbDBih7bGqKK/zaUp8ZJIOQgKlDHXJ6oQLUyN4JBsjmEilRDK301/9tUmiauk3te9rYJO36c/o/lYG1W/F5om1YjtuNYSCukXI1AHZ/VKErNoav3fmwM7Iw0GpVRc47Umc5QBFF9j7IFpG5AsiuQ4gxIHOl5QUBmByhskX7Vhva1eA5H8gQjpO4eCf5TGKqNPXgzGKTaOYYpNvVjkilFyACRhZg8zIVJg11s0ha4KbClOC6XNxENMMoSigBz4cYO/ArffEV151cEk0Em/1gvkNDPUBB8VVaazxXtXPj1XHhLho3UCG4qwDCrfCWUDKKOmNJi2WwOoBxRPkhLcD5QHc2iAtXVHyF7nfy2R9gN2QzWetlvR6fNcrh47sXigH7Au1P4a4s/CnnugjPNOxjQBKpQJxLfBak0lfvZIG0PDQsTywNvy9DypYD3JUnf4sCHYsDHIkg/78RPB9fqY4zM96fIAO8gm18HsoUNhqr2ujPF+t5MEuAkGkAS4kxPnEtkRBfSZKwuhsPGOtgrZABuAAvhpg784o9vCuvxYxeG8Is6tjro5Bvt63OJvtmGIdZWS7OSKBVwAKUpHWbjvw9l/PejTIBI2YDc5thP5siPA9/h6+XLfgm9h+3ATdBvuwKGHVZCj6as5VKwVst+DdqGOQ0Ni3jvwUhvP+BxDEX0eXgG+sJp4m5c86so1H3VNAdhys/PyLxYBXhSE3hag6gOPK8KJNC8l5WAVxWRfqIIGcBYEF+xpBGE30HJTICMRgKyqMatVPs9mWJNZ5Yy2ZZ6ACoBn/0c2WdvpwqZMUXwOdhFEJ/zfhi/IZO5cB8fud/fC/x33GqrL0R9njSfj/Bb7Bji7EWedNHBcK9AlPDZi1KUFktNzkvpyXvz4vs1Zfz+nvzWE8i17ULjt6MYjdP5/EITdoA1i/4tOI+NQ+GJO9DNKxy4GCxEa9L+8Sg1YSNe+roJUa8IsBGvzgqyheZaY+AGCXuzAXCrPnCHuFsPuFcHeFCbMkRJwQDJ4/WR/mAT+E9haBS3wI/n0BCwlGq/B5Mvbcn4t4LUALqyJI+C7KO7Q2XNpqJ43t0mxwBDzan2mwt38/rKAD95BFDiYYwdbjo5aZ7q+6Ys4bnoxFYufEGG7Q4MO5wIR4bnfQzxeKIzyk7ajhLUhXNKkgglvPh0D0p6i5T6Eh8tXz7/Fvmto6VkbrzE9y86cSdY0+h/Bolu3j0Gpl3WwPrPDWSm7XAjc3XynAscGyWc26j5GI83wYXF6wGzDnrRkFwZQen/r+bAmWY0bQqcI843IeMQl8gYVxsjdV1J4VZysvCKFPmvBQNkPNuLlPEGKfLoZhbKveOZbGF9luxhxphqjgt7O8qOJY21r5q5viiu0/Bvn9YAiQPFmxVlrjIX6rwgpKc4/OM3dPqZ8wPejTAShN9olSvabXKifRuJvt1RFH6XM8MeV5EX1DNIJxph+cQOKOSxB8U8dgoUz0UJT86ufNidbRoBz2+Q5/X8tpP3/VxHx8GQ6jZrsphY8tPoU90vNG6byNhtcB0TBxeik8ds4GA3iPcxv4fUtU2FQ7nCrWI8xYtx1asqQ7OvKTT7SfgDxCHiMHGUOEbEN4NyQRFh6Jd+K1q4ZxA3QNr5cH44+E5qfABTbh/KpOFVWDI/J1A+05m9GGjD3o20q565sjD+KmwoNIDcAG/+NBE6yXQ+1s81CuD3+VEGm/zU0O9JT0Mh6rPS/NYvhN9Jwu92IdHd6L0LM+wrQtA04U9DYX1ugjHukyhadqKo+/ZvUsx9B4pN/E3QtvJ7D4eh1AzWjwRrGPWP0GkUBfvBm+AyeitcRm2F86gtcB65BZ3dw4CdLUgw3rSdQcbN6cKV2JKsewB4mCJtbR1kbGyAzM1EbENkbiXiGkGzndjRGJo9TSGf5gjZrNIU/de05ws+hTK2N+8Jtqee8KEhYG8mDS0lXiksmebEnvUpwBLH2NXKmO+C41Y62QZ41d1YvDXJFLPsLp+Lzu8Ckk5j/5/JAHzot5kiPy4rzeeK9t0U6XsLicLvJ+EPFGM4VELkaQ+DPMcd+o6bArexu1Bk3A6BouN/Dbfxu+FKFBq/C4XH7xQQ5+1BkS+WzXrPwmPJBIM2Q6cBZYD6Uf+MupGw7bsBziPIAMMJGmJ2HT8dmjiq59gloFFuoTG/Tc4FOdQLpC6phtRoYml1qJfXhHplLaStroX0NbWRHlMH6evqCV/hp98JpW2cIM6C3xNdNqss34av6sg4agDbM0mQK6MhImMpwY7saQ9r9maobQP1dCccprF5lgESOppo71RlKhwNzDoczEsAvyHEz/QA9zsZCBEvRDuJvouifbebKDyP9P1FGQ4WF0U/UorhaGmGY2UY7nXQy9NvfHY3xfixEyh6SKzR21B4TA5F8mPs17iO2YlSYzejD5kpckJXHJ1QHVfdi+OOuxtuuhfB6QkVsGF8c4wb544KY9bS8jvE9xgtkrVt+/4byQQkZr3In4cMYNNznSC889BYOBH882i2USOHlcRqYhMUSyuLBuDD7WBnKGaXgjKc3yamDJTzykEVwe81XAGqhRWRGlmJHpeHfGFZQLOR1ucnjO4nI+0R77C6rEFz1YHB1AA2ZSm+9mIGSA5wYI+7WLFXA6xrqEMdXx+31n3LDcD7gKd/UNfox28I9cU5AcIdQcx+KgM8620oiL9Lm+b35Yp2LvzhkiQ8/4U6Ev14OYYT5RlOVWS43kT3q7ORZRMNsWl8U1QatZrSJ4kzKkec7+E6egeqj1mJ6PEd8dq9ABQTDYTSkpVeJfz6e+EWLIUE1DOc8MHfCSETh8JlJDVqI+NQiOq/RafVMG23EiZtVkBHG80/TZ1I2FEGcBoSC8chm1FwcCy8J46FZndtEi1MOAWcxt9QH++UvZ/5DaGkQZTeg5wgm+JCn5VGCNMKQR5aGPLpRaGYWUwwScYLd2FdYLlwsmjG42m8J0iVR9csqNzZnckW1BBOChUM8MnPgT3qaMle/mlZ47R3iYWnXPR37dMa4GErM0r/1lAGff2FkNz/5w7/8iYwW3ge7cW+jvYTJHx8BVH405UZ/qrCcLE2E44ffDWqIOHeuVti8diOaDJyPlyHx8Fh+A640NT1CxxpfskRGxE0dhCS3C1yRM82NJW4wILCnbdSl5SDenVVpG+oQ7W1CQnyB0VlU0T6D4Jhk2iY8e8CakX+GjUjYdk5Bo5URhwHboYDYTcgFgsm/YnMIzwDeBDij0hk3B+IFOrohX3vaSEyyVK4szi/QZTEh5hsKxz3l/jZQxVbjdbzIYK1RlqE1AMd+BHB66knejJFbCsmnV2WGkBT8cKQDz4F2cP2ZIDeljVfdDfveaGkkVeWAe42pHo/3YYiwVK4MuhXhoH8614e2dnRXkob7WXFaD9Jop+qJAp/thrDueoMF2qKvB9u+M3tcjF5Rrg/wQWbxzVBwOjBGDjSBz1HBqP/SD9MHj0cW8c1wit3G2G5fLfjwS+ysIEkwB7yWWSCqPLI2EC1mP8u0rHu1Fm3B453wJbwwTCuv0gQ8JeoHYWC/TbCYcBmkf6bYNNvC9Z7dUBGPM8AfxIDieHQSAf/WKYV7i1sAY2EXz8wmBhD8EvKpkI2tyjfRqTqcBumiKlLfV8hIfqFH6F8TwZ4QAZ40ceq1LOuFi6XS+nXyTLA1QqGSJtlj4y51kJj8XOCfxGxZJibrfQE4Y9p03y8Ns2fJuHPULSfI+HPk/AXSfRLtRgu16HPUI/hWXe9H3sPMhk3BE/tWXDR+fxvr2cqGCDFh/5HP1tIAwpSiqUyMKsYNVX1oDlIO/RkW+qn/gB2NIfvoH5gNaj5qxH5j9HhBiDRufAO/URs+m7BZb/qyLzNI7gl0YboBKR1o9Rv+bf/Oz/woz5ZSrg5FDRkWPQUTKSRDhFu5iVfWrKTak8Dqv+VGBk956aRiZMd2P32FuxSBSOd02767FJZA7PDxuwT7wP4kDB9TkFofP140QAAIABJREFUogrg8zgzfBr9vR35A2VguJEofIWcaD9TVRT+Qg2t8JTyr9QVhb/egOFGI8pELfIvA7+DZG0J+PKkl89j+Zm0TsiI5ePrjjTubk1Dr8ZY5d4BrCqN56tF/mMMGiwl0TfD/s9N2dj23YRXgSWhSShDwlUhahL1iCaQzvjqt4PyQhlCPpt/K0jNn7oqkF6XjNBMMELalfr8foEK+eJCtsq4KlT/Swi/QsoNINw9PDmoIHvc0ZyEN2SnnfTYX4X02Rkn3YPcAEfNdcCvEsZKWzzrbIKTDjq/dA4gzwI3muvidBUxzZ/Xpvnc0X6tPgnfkOFmY4ZbTRjuNCUDNGN4O9jgX7k07dNoIzxuroMHZL5H9P5Jw2yRQcMrDY21k+ZXQYXmIWSAyB+nClFZOyWMW6yEba+NsOtDonN6bxSo0G8JlVoHQMFP9XaD8ENT4FcEVYBstlX+t87Pgt+M86k1IHcElEUAFZlITSbKqAflKuG28sdUh8oyxbqSTDrLhSULP0CpvVmUapo9e97RjF0qqc9O2euy04667GIRXS8+DOQmkE62h2a1LV73NhWGhh9H/lokJo0yEqL9gjbaL1O0X+PC82jXCn9bK/y95gz3WzI8aC2+fqqWHu2I/0wm4Dvx3QADPKD3f0Cf41FDHUTUqYq61cajRp3J6NhmIhxrhYNVovRfOeqH0au1FJbt18K4yUro1ViCAj1I8D6bYd17C2x6U+rvsQ4Fuq5Bz0FeyIyyo6g1JtHNCX7ZF7/yxwnS2ebf/Nz8B6VStxsAEo4ZIC2gNUJhaGSlqC+gBjfUcpRqd2EmX+7GJFNtc+q/cHu4ZubsYSNDds5Nl8Xb6AhcK6tficTPFI8GWkOzxh7vh5piD+MR8esCJPTSxxUe8fXFNH+zkVZ4Hu0k+j1K+fdb0SiEhH/0B8OTttQHdGCIo2HkFspCLwca/p5s4CF+Q5k40ACPWujgLhnxMX2e7fVcUbGqF1jFaBI86pfQrRENOxLarhdFe08SvPs6lOoZiclDB8Ciw0pYd1wOs/YraTRDDeBO6+zLv/g1gOIp31SKZn079fPfIhR+iYzfEOITrZdM60hMAZk10q/a8t4gVR5p5aqMdWCyRfYsxc/i65tGjyqow8656LCTJP5xax12sZie3nErnYe8EbxV2wSaLQ74OM5CMMCb3t/uyH+GRx10hfoupPlmuaKdC0+iP25DwrdjeNqexO/IkNBJfI2fM8hPJjlD2SCJ0vXPXLIumMbDGJ/GGePtIEM86aCHWyT6TcpGdygT3auvC/earWBQkcSrQFT8BSpQyi9PI4ZyC2DWYhkKdCSx25PY7VYifHhnxI5pCBMaUlq1Ww7ztitwx7ssMm9R9GcwkaxTvDIpC0/98n8xFvE0pqaRRH8r3gxCMMIHrREk+lBGCyY5ptprRd2/NZOGW7OUSaY59T/rb4yjDrtUVJedstNhJ8gAf7npsYsldOdzA5y014Mm1lEYd/KM8LiVwW8xAP+26mE7HTHatWn+kVb4p+3EiE/QCv+yC8OrrmS+7mLzuEyXTKDPsNaMGsoqunjS00AwA99m1g9OfKbHH2he4lAjPO9lgHtt9am30MWlGjq4QNu4SFylPuQ6laM71IMcbuCAqlU8SDSK+vJR+bBYpMLinMfCfBK63EKwsvPByswl5oCVng1WahZYyZnQrUzzSobBpEkULNsuR+1u0yDxtYHfoD6waLMclm2WoWqXUKhD7KD5pP1tQZV4gyfhZ+MUOl/fjMPbDp+93aDepQe80v6o1BvtnUG0RtDQPP4LZNIQ42HKraZMHm3OJCHmwo0iUybmc7/g62V02RkH0QCnnXTZtQr6DbgB9uswyObYQR5ogwPC0FDvt10oym/7+rSjTnaazxaeRH+RJXw3htck/Jse1Aj2ZHjXi0qBg5gFhHMLTMgIxCYrhm0F+ZFGHexx1cE+V/rsxAHicGEadpYgM5emzEGjkHM0CrlII5Br1fjIwwjjW/ZAwW4bYFh3OQm4UMsCkdIkbOkIEnQeQeKWpD6gBIlbIkzLzHzRKTsLpiS6ectowQjmraLh1n4Bnk4uAnWgFVr28IXFH0th0no55g7riPTlFuKNnfjPxPELPmTiTZ4yn5IBxucOHEMo9nhBubo08IyJJBAvmWgGrRHUB3T5WUFS2XwjO8VaIyabz39X2PTbvxlwu5IeO+cq9gCnqCRcqahveMycveAmeNSKxpH+NjhEOz3ehv3WO4XwqH3ZUydH+M4kfNcc4d+S8Ikk+rveDO/7UA/SV5zPo3+V1gDrzBk2WjLhy6at9Pl22DPspn5hnzMZwI0MUERrgFI09CxLDahgAD2E1quHYq1nw6ItpWeKRLOmFNVFZ4AV+3UMqsyFJQls0XopjBosgvUfS3DaowqUQTb45O8Ah9YLYdGC+oNWC/HGxwUZ8UZ5IjjrJk/qk3o5p3fx/eVlg4ykc8i8Sss/omWe8J+U+8IIFP2yUKFUb1Jt0WeKZYZMGmYk/NJ48rd+Xn4sNYEXi1MZsCUTEOeK6bPLxXQjuAFO2OoKN4w8aiZmhKQhv78TTxpmgDcU4a+75UQ7F/59b1H0pD8ZPhAf+zF86i9mjDXaU8fX0efaYEEGsBYNsN2OMgEZYG8uAxwrTtFfkh95NEBozdoo3XQazFqugFXLpdkY1aaILxwKVmT6LxIKg6rzYNE8GhbNomFGbBtTX/j5W37vxYPjagiHlY3JcP79uiE1xAqa+1ohnxMvtGn9PYNyuUHOj2/w6N/tSd39aWhu0ev3iAdMNMJjrRnICBlndYTRgWyeYTNljD6TLzRg/Eenv5n++V8t3v2Xo2EgRX98AR12xlWPXa+gX5UEF0YDb/tZkBF0xO8ImvxnxuR8iPdptCGSBupmR7sgfL8c4T8PYEgeRFlosNgU8iuGNpnS6IAMsI3KwE6eAcgAWx30sNnZGOvdLBFeuDDGF62JttX7wrnpHJg2p9pL4nAsmi8R4I/1SlNKLxT6y+gUnwGzJpEwbxpFtX8Jooa1RioXn4JIHWCNUT0HCOWhWMuZSKJ6rl5jAtwk8W5/ISoZQhqY871F8qQCyJTfRuaL+cAN6hd4A3g31zoPRQMoFgimeaiINtBXLDVgstmGLGWykRD93/3JmDs19NhZZ24ARmVAl52lZvBkAZ1LXPSzhfVwyllPODZw2lEHMu//7G3i+PDs82gDfB6mh8+DyNEDqanhaMWXDKE0N4yawtaWKOY0AkWcRsLVeQKcXTxg5zoJ5q5+0HMNBnOjiHSjtOw6XUjvhpXnwJx2vgVFXxZcKL1y1Li5Tfs9UBYxaxwJ48aLMW9QO6QGWgvi8zKa4lMARVrMhGnjRTg2qrxw3UXmYRLyLxLvInGZuMYEQ2Sc0RG+CMqp/fzXQBJptNAXuEqmuU5l4KZ+HiNkXtARlpcEGXspVxsw+QIDJg0xZMke30n/2WWAhoIXC/PhIBN6gdMOuuy8KxuZ1Qz+v/KuA0yKKuu+6lTdk3MgCQM4BCXNIMGEAcVdDCiKAUWMKCCSMwMYUARRYczrurprdtFdREEyIllJgiu6iosECRN6IszM/c99r6q7pqZ7GBCE3b++7zDA9PR0vXvuOfe+evVqvkNNDvHfDw7wBvYKPnCv/puniWuHVw3EII98aljBAyhEBwAPuqhooJv+fl0ziuRg15tybNSfQvp5s0CC2QG4WqGoqzfZ9lr7v48DIIB+wRyafkdPKkXG857LaoPnWFo/KIOcXZ+n5/p2I//wCCqerlPVfFTtC4BFCOIyYCWwWlDZq87AFde8kSlU6f+Gqip/osov2xKtiSNah8JxY6QiwiY30TaNSnJl9hf4p+nJxc+r7C8Yq1ef/Al3dIqFDaAbWJHM3YAQy1ALrKznjFrgUdcGTDAhtp/vpNIJao3g/v46bWjpOG3byPEFoJW31acGTYaTSEMA0ieHBct85IUIvAXuNk+Rq+WTElqTR2v9+brAhTogt393Kh0XW22P/8IRUbT1wfr0Qf925B+qy2sQpa9rdOQ9QUc/RPZ+DMwDET4DPof8j1XynzfYQyWf8T5Au6jy8EqqWpICkvBjZBNBhHgQIYZoQyRVLvfKeQ78zMslKPyKnvbI7DeLvzo9Mey1DE18kQYbAAGWxAqBwk+sayKenWchAGMRPLdsglocyoFfka6hej85k0QnAr7it3tgNN143o0kUhCI1JwgODANpqqsTp1ETrRlkajMI8+34AIFL9ShWkDTcqq/1zHgTZtEb9yaTSVjY43HvMSpFb3Dg09XY0Xjuf3CKW4qeVVQ6Z8xlm+g4n8LeFfQkQ/w9XWHLOTk6yc0oapy3hEV2f8v+P/n9YiWAMvSQIQURYR1qDGejuT3PeJ/1Nu6+Dm0ftN4Z1A9sDNonY6B9YRY0xitYKIQi6NBgAghVjfUMiD/ZVYCcGG4u7cLKqCsYFcvDy1CKyZvSDhNJJCPrxnqoQV9M+i8VveQSEIAU3KCBVpDIAUEaPYY+bo+Q74uoeHtMou8nWfJv3vazyCRPBGYdEwkNxhFC/tnUjGC7zefr2Q89896tVFdgcS4zRRU9ByKtlxU+y8Cr4AMr4EMbyL7J3oCN3aWf52L4O+QClCx+Bqi+RmE1gZEaAgi1AcR0qnin0nm+39UPCdCFD3lFYWT9ePLfvPYdK5LTQrFCLEIBFigC7EqTfzNrgIr62l0dIoXUueFEnilCnzd3nnaniMQhFdK7Hs3taRWzR5AcKYoIrA/J02UQfUh0014Q6GjgqsF6oPECcBE+bMhkZhDWS3vo52D06hodEy1dfxqix1bwcy+PgmW+QSK2ekAiFA4C0UtyFAEMvif0dS+Prwbai5v/vSVXCpeWbiWKt/nzZ/OJvpnsyARFjWioqlyI4gK/5TIjkUzIoX/UZ8oGOMNtH51fnC0VIF0qEAjIbuBxVFCLPQKsTJJtJ2viQp7LfDrnR46OtVLRaN8tOcWD81Dgbj7xtNnBXZbYDK8ccM51K75/SQSQIJEpQAe+L43++laoWfNJDcKRAb/jBP1AUNjWzBI4UyYREMu+QPlj7TuWBJjPPs3+GCtako13E15U6CWU4FH0Nk8BkwDEZ5UZMgfbUy3o+2rOMQLO7+UJDi6aRpVvptJlR+ABHMzFRHmNaMjr6WbD5GeWzwzVvgfjxKFE33yQZGc/ccs/uxHZwT+qxboApIMG4B9oBAUXySJd+bZCLC6MYqYyV75qFh+IPT6TAd9HiVOcVdw/ERgRVhxRyO6p0tPalB/CNTgEXJ3QKCzZoRGhxAwvqcDInEyndNsAC26sxkVj45UUj/CwLComlkfkH8vHRqL8RkPTARyBB2eDDAhHgWgDFL6B+tU/hVvAvkpsJSqKtbRkXcupYq/tqaKt1pRxTstpRpUvn82fresLcoLJ0a3LpoWKwpzokTBaJ+88eO4s988XmuKYjAVKhCrbIBV4IsU0eoThyivoQL9PVQ+UalA3iCd5rtBjIzftnjkVKEIRODWauXdTSinVw/qeuHDFNthGjnbzAKeJldbZH3bGRKedjMCf+f/59dEtH+SLr1kEL3Vp43asZsx3PB5Y8Mq+0O1rDg8wkEHR6ONHqtwaJyFDJNAAP58qPqL5/ZC4N817hFYQBW7XqeyFzPpyJ9a09HXQYI3gbdbUdHjyeZ7v1L0eLzwT4lB28f7APvkoo/jzn7z6AjpX9tAiOVsA+gEPvcqFViTLnLtKrCqoUYVj6haoGQsP9TJKYvEHRe6zkgSmPDz+sGhbtozOIa+uKcxvXRzFxp5TU+6+Yq+1OOS+6h7twF07WV30R09bqWJ1/Wguf3OpR8HJVIJX2Vjebdi6LHXTOYNc9GhUUJCkmBMkAgHQQS2Bt7MyZ+LPr+Kb+v6M/AeMJ/K/t6byp5vQeUvtqTyV1pD9ltT2ewm5nsXFo6LaeCfHCcKx0eL/BG84vcEvN9+vNJAZr0qBmEDC1EMLo0WqZ+5as4L8HN8SsfDCvjR8WO8tCReI6gF7T5J6wd+HxiLStFJlIAYpcPckiDcWcjLzObrhlr3KrRV9+GCj/fIQ+AZh5kEow0SGEQ4PMIlfbxgaj2qLJ6MoD9NaiPoN6ni4KtUPL0Zlc7KpNLnWlBZbgsqzc2kfPMJbiMiJ/lzEhB83gM4MvAsgBPO/oAKIPPXn1VTBVALDLZ3BEvihVQASQCowN5b3FIF+ALSr/fo4QedV7WMCM4nnH4SHCOLLTgeYuWN1AIEyEPQD49WJDhkCX7+uHiqPMR3B08IrOnnO4RKPuotnxdcMr0plcxsTqXPnE2FY+NNdf22cFxcROH4OPg+sn9o8GEQvyn7zeO1xmgBoQJLLSqwLFa48O+1div4posTKuCTJCif5KX1LRzy/3nS6Ne7dLWRhMyg6gPETxbnn2PiFJ6m5xEeDwFq/F+t6/YRWATYTgBJAgQ/j4PPrxsTQxV7e5Pc8Fmu58+RdwdVHHiSCnMayqeFFz92FhU/0YT8k1LM96+E/VzCz3suGB0jV/uctOw3j07oAtY3hArEVVeBlYloCx2ixKoCfI1gz60euWsYB9M/TKfPdEWOBT7YBNpE7hSYINaM5wUm313sou8ucsmKvVYlOJ2bVg9RwWbwfgf+Uah70AKXPRqu4+FlWx5JgPyRwChU+KO0AAGU53PmR1PFPr4ruA+pXb8HA2OAx6n4ncvkvQqFk9LJP7k++SemWn/HKwVjEPxRHPyg9J+07DePAYlQgVTp/6oj0BUJViSIMXYrWAjJ5zX1fAMpq8C/r3JR4DWoCXZ2d1EZOoYjOapo5Ixnf/3pahctwvdXxjnp++5uuVDEOpisHPZL0EwUnnRiAp0U+zC2ulHLyryBIBYOVxNdPOtZjoBXzPBSVS7wkk5lj9USfJ7vZwIMB0a6DRI48dWpvsdL2KbGUOXh84ybQfiuHt7+/T55e1jFnkEgT7x8TDzf+sX3BqobWeTv+CF/RHRcwUgOflS14B/XrF9dj68yEPBENTEk5wW4IIwTriXRYoXdCniGkAetZKxXzhHwv+dZvs9zBWXjdKpE5jBJWBWYCD9c6aIlHkHLIly0up6Hfuqpy8vCMijDlWrw66RNDFFbyrLSFI85OTWE3PxipHo/tiT+bDzTWYUg03RgJvAs/j0H5zWdp8C94eWfCTRMVxhukICDbixr5ylzf24sVfpbElVmI+C8lw8/CJI3iLgDGEj+2ZmytZTbvY2Ms84tHMHfzwcBVPCHRlQjwCk5siNlCxicF2AVcEtbqI+ve+1dAQeZB5OzvWCQh+a7qn+fJ4v29XWj1vHKFrJsgiICK8YSj0bLot20PM5HaxpG0PdXqqVjJeMQmHEqQIXGRtU898AkY7IdvM8rSXFCwX9YvaedABVTgwSoAsrxWQtH1hJ4M/hDjZW7Ie5jkOfySTRReX2isqZER89F28f3BPK0b09pBeWbesg5FfUzNSaVxsvHvvBzf2zBP6nSbz/+ZLaFltlBJsGXqaLHfE0csZPg6zYOmaGcRd9fYbECy2s2tXNQ+USdqh5XasFB/hEkWOp10vJYnVYkRtAXKdG0plEsrCEKQfLKSaeSMcGtaliaOUiHB/jo226x9MutESd0KxlLP1sKk4pJUAKL4taWv7Lfy+D9hhpEXt3LcdPR7SB+EQhQnAwCNAIRMokq2oMEXaUVVJVcQ/kT4sO9z1wQwmkPfP7JLPxqOzY0DbaFZi3AJFgRL4aECjCTgLObM2ldcy0kCRZF8TpAlyQBX1dgIuzq6aSlPhetiNNpZVIkfZkWQ6vrJ9DaJgn07UUxdPB+n3xfaQFQDq4pWE1KEKgdF8fRtk5x9PMNEbIeOaGuYogNv8FaZOEI+S9530FV+411+/n4vP5YopJUkKAx0ZFWygqqLqaitzJq1EAGdgDx9sCfUum3H9n4PavTVFv4ua86CdAmzgkV4I2tHXQEcsq+vzi2+vdN8JLztWdpVDDYQ1UIJJPh52ucqAfctCLeR18kR9GX9WKhBEyCRFrbPIm2dY6nfbdHggBeaQ3Sr5lEU3Tac1skbekYT1uy4+i7yyNo7+1eNai/Y4spA/+wTkWvOKny2+DTPOWq30NOdQdPUQJRab2AFRzZ0RrSHzL4e/F+GeGCf0ql337IriAZVhBZnQSoDxxoF98ORYIvG2rwVA/lDaheD1gJ8Bm3i+gEdnSGLUzSJRF2X+eiZZEeZQWp0VCBOFpzFkjQNJHWnZ1C61uk0easZNp1XQwVDPEGSMAFZhHU4OcbImlrpxja3D6atp7nQxfika3qoQcNMpyKxa28R98IDxW/5KDKtSK4fPsnCwn4Dp48WEEhW0ESCNCQKvObU/6YkFPKhbC0zvlDQgf/lFT9xzpeBAGWxxpzA1YSxAgdmBeKBEsSBBU+5KHdfWrWA4xPTRIAS9FO7rraKQux3TeABNGGFaTDChrESxVY1ywJBEihja3SaOM56fRVmzTUAAl04K5IOjqZ6wqdjoAQRSja9t3hRfB9tK2jTlvauWlrB42+PV+jH//opL19PXRwQLDjOBG7YHU5zBtQTHVS6RsaVS1FgNcYCzy3BVfsynX7v5hr/4NWUFWWRoXPRpuXda0oznvY1936vN/f3ffDHbNj5KxgDRKgSPQtixEfhwyyh2/6cNN3l7jon2FIwARYaGAlLGNXTxftutYDG6hpBevOTqYNLVNhM2mSAF+3Taev26VB+pNp5xVx0iLyUQcUj9LlvAN3Cfv66bLb2N5Zo63tBW1tJ2hbB1YeQd9f5qD/XO+CSrhRZ7BS6NUxUKfDD+l04AE3HRgIDHXSYV7cMVNQyeuCyt4XdPQfgioXIsDLgXXAJmPp9k5j3f9/jNu4mASHYQV+2Nj7kaFWU5UA15yRwTeP9Y3V/MASY5LInClcGi102MFfQ5GAA//VuQ5kbs2icL5FBZgAnwOLYQvLox2oBTy0UlpBVA0r2NAKJDiHSaAIsKkDkJUKJOPvSbQlK56+6RJL314YQT/0QJF5nYd+uclNu4EfrnDQt10FfZMNZAnajq/bO4EQ+L9/XSxQQ6gbUX7sBTLeAgLfLWjvYEG/jhJ0YLKgPF7Z86yg4pcFlb4pqPwDQRW8uHOxUMu9NwB8I8cOixXsNqzgEEizzBUq+IVAD17RE44AZ8SRjaCvayRnBQMksNiBY7FPzApFAjkXEIFgh6gHTCswCbBIgyXwBFGki5ZbuwK2gsaGFWTCClqnglisAkB7RYLNWSm0GWqwOTsRqpAAxIIMUYAPNuCmLe0dUgU4+NuyFAH479s7KgLIvQIuBQGuEvRvvnWtDwjQT9Ce+wXtexgk4Eu6UwXlPyXInwsS/AkB5cWdc0GCT4WygtVhrAAqULZKk/dI2oK/H+iaX0vwf9ei71gHdwbrGgRJELADd6BFvNe+qNRKhFAF4ad2FXCCBF41QbQi3qusIN2wggzDClqYKgACtEs3SMAqwCRIMkjAnUEMCIDiMEsHXIAmLYAJsM0gwDcgwPbzDBJYVeB6pQK7+4MEDwraPxwqMEHQIV7W9TRI8IJhBe8aVrAgjBVABcpXaqHmK3YcHuFtljdULeg444NvHkwCvmi0MiFYE5jtIbJcLIkS5y/0qJtNQxEhbFdgkGARkwBqsdTnoOUxYboCqICsBwIkCFqBqQKbpQrEAdEgQQSC70HQnfgqapCAVWA76gLeLuZfl/Ct8YJ+4JtYe0MF+oIE98AKBhlWkFOLFSyyWQFUoGxhzeD7h/rmHhjujT849L8k8+0H28H6RpbC0LCCeSDBRyDBPJ9IXB4jPvy0jiSwdgWmFSyxWcEqtoKG8bTGagXoCpQVpAesQJHAqgKwgmzDCkCCrVmO6gQwSQAV2N4laAU7exhWcBNIcIegX0wr4OVdhhUUzlFWUGpYQaXVCqACJW85qnl+wcNe/5Z79YFr7vNoa/t7xMZ+uth6ly523qeLf9/vFfsHnYTVPb/nMQcEeAdW8AII8BwIMBPBn+4UYhrwOM7hyQjRd6FLHDgeEgTqAbYCHVYQFcIKjK5gvdUKuB6QBEA9kB3CCrKVFWzLcgNaaBJYCsKdl6udS9gKfrZawbDqVlBksYIjH6uuoHIJyPFksODj6w+7HvRueOGPrpYvXO0Ss7q7tCcudompF7jE+C4u8XC2U9zcwiE6pWsi6Qyp+ep8NEKw2wOXIfg9nUK7wSG0PkBfTWj9gXudIm22V7yxUBMVtdlCeCtwBqxgFazgy2pdQXJ4K8iyFoRBK9gi6wFnaALUYgU/wwp+sVnBYcMKikwr+BBkeI2v/3sC08rFw3wlS2/zPDLqAqd35PlOx/0dnI5bWjocPZs6tIsaalrbZE1rFCM0n0topzuWx3toJvCHFq0JBwjsaKoJ5zlAR024LgJ6aMLdC/++2y0ueFsXqz4LUxDaSRCuK1hl7Qqam12BYQVt0i1dgb0eMLqCbLYCt7ICSz0gC8JwVsBb2FitYIiyAu4K8qarrsAPO8gbr7Je3rk0zFe1oZ/+6bDOzpZdGmnuDuma3rWB5rkQaJuiuTNihSvZJ5wIvNOBccM4OqxjauCMPOwfkj+4k4E/XFAwd5wQHriDniQEb1LHooZKQUSBIBF366L3W27x9YI6WsFi0wrsXUFD7gqSaqoArGBTe7MWCGMF2UZX0MEgQAdbV9Ap2BXstMwNhLKCg1CCQyOdgRYPGU+b++sbbm7pvKZRrIjBeWM4BIZDRBvj4HM7hNfjFDoCzzM8qJyEyxxDYzztZDgjDnvQzcDzh+eT4JNBNSCDjjJRniyfNJ98PJAIJAOpHk2kXuoSvXNdYsUC211IISeIzK4gGlaQ4KNVKbCCerYJojBWsCk7hBVkRwRbQysBbFawg62gW00r4K5gzwCowIMuGfgClfGVX9zmWdWrueNWBBglsgSaZpEOpADIB4HeSRKCiRFljJHPGDM7Gc4oIoQLvttAqMDzifJNxPkQAAAGcElEQVQJy6AD9QA0kKIJ0AzIxJtlZjrFH4a5xBsfOsSvC+vcFaAeSIuWVmDtCjYYXcFXlgmi6nMDCZauwCsLwkBXYCeBzQq+76FI8HMfjfbf7ZZSXzzcR6jcC1+90vX3LunarTifDjiv9sC5QEvgbCADOAuoD6QJRQZOBk4Kkwg8bj5jHI9FhN/9CCn3xgc0s96UeWvGM+P5ZO2BbyHUAPFAnQd0BS7waaJ7V6cYPd4pFn3gEIcWieB1AnOauHpXEFn9WkFzoytobekKwlpBtJwgUgVhiK4g22IHXdgGNPpPHxcdGqDLoP862FvyUS/3xhvPdsxI8Io++Pw9gCuBS/hcgE5AFtAWaCWCRGBVMInAiWFXBCaC1xjTM4YEtcm+Nfh8Atbgm1nPJ83Bby5UVrQRKlN4kC4ELhVq8K4Grgdu1DVxZweneOxul/jHHJf47hOHKF3BBEA9sMycIEpQXcHqgBXY6oG26XWaIDK7AtMK5HRxR3WxiBevFD4grx5WbOqv7599uWtNzwzHK7EeMQKf8x6gP3Abf2bgOuAPwOXAxUIRuyPQDjgHyASaCqUGpjUwCVgNTBKYlmBVAmttcFrswJ79ds+3Zr9V9vkE+UQbC3XiPAA8EJz5PDA8QN2A7sAfgV4AZ9PtwN3Ag8AQYIRXE5NbucRLN3nFwpG62PKXWOe+T+I8xatTI6rWoSvYgIJwI1RgI7qCDZmpwQmiNuEmiBJQCMbSNljBdnQFO7u4aVd3J+3t7ara1c9dvqmfXjC3l/vnCV1cG65q7Pi4fqR4Hp/jMWASMI4/EzAYuB+4E7gV6A1cI5QaMKmZ3J2FUgImPSsBJwEng6kEnCScLHY7qEtN8LsddVUAU/5NArDM8Uky41n+WAZ5EFgWs4EuwEVCZcxVwLVCZRJnFGfWAKEIMBKYAEwFpgEzgGd0h3g50SX+1tytfdwjxrXi2hjP2rvivdtyGkT8+FST6N3PZcTtmd00bm9u04R9uc2A5vH7c1vE7pvTInrfrMzIPdOaef/z0Fmu727PcGy+vpm29uKG2rIGUdo/oj3iHbz/n4GXAQ78M8BTIkiAMcAwYCBwL3AHcLNQ6tUTuEIoKzhfKIszawK2PrbAxqJ6cRiqHghHgNOuAKEIYBZ/UcZJsArwSfHJmSrAJDBVoLWoSYLLhCIBZxBnEmfUncB9wCChBpwHngPwKPAk8DQwG3gBeFWooL0B/A14G3gXeA94H/gA+NDAB8b/vWe85m3jZ/4CvAa8BOQKFXgm2+PAFGC8UGRkUj4glEr1BW4SSr1YxTj43UQw+Gx1ZkFoZj/XQ2yNnCBm9ldrE0XQAk579ptHqEKwNiuw1wJMBD7xxiJYCDIR2B+ZCCyVJhGs9YBpCXcJJbdMhqHAKKGkOAd4RChlmA7MBGYBzwFzhAokZzGT5EXj6wvG/80xXvesUGTiLH9CKIJNBiYKRbrhwENCBZ19v58ISj6rFvs+21g3UTPrTdm3dwKhvL+uBeBpawd/6xyAVRGshSGTgWsDKxm4ku4mgvbAhOAs42y7RSjZZZtgCWarYGJwkJgcHDDOVCbJaKGCONaGMcb3+HUjjJ/jzGZf50Cz8nCGc7DZkpiIN4hgwDnTTZ83iz3OdtPr2e5Y8Rob58sZb/p9qMq/ri3gaZ8UCjUfcCwy8EmGnBASamBMiwjMDwg1iJxBJinMdpEHvJtQSsFZxwUXB4QJwsFhkrBycHZyPcGE6RMCNxnf59fdYPwcV/FsQSzlTDoOMhOQ/ZzVibO7s/F5OMM52KxiTGAzyxsLpXShen4+f3vQ7V5fW+BPe/CtR6jpYPscgZUMpkWY6mDWC1ZSmPMGPHAmMVgpGgs1uEwOziz2UyYIqwYHgUnCAeEM5OBwNjJhOhnoHAadjNd1NH4uy3gPfj+uUZiArY3fx6TkIHNWM1GZsKaXs6oxmU1Zt2a46evWgIfK9P+KoIc77B84nDqEIoV5rcBKDB40kxw8kEwQHlQmCA8yk4QHnInCg89B4IxjwjQ0YE7FnlULzNeYP9PAeJ96IhjYNON3mVO51gCbGR0tgtO61kCHCnaogP9XBv1YRyhShFIKOzlM2EliEsVKFpMwJmlM4pwozPcw39P8HREidGDN4JoBtga5Lpn9PxPs4z3CDYSdIPavdsKEIs7Jgv13WH+/IwxqO6//l4E+lcexBvtk4n/i+D8ZeWZbaiY+DgAAAABJRU5ErkJggg==;" vertex="1" parent="1">
          <mxGeometry x="378" y="290" width="84" height="84" as="geometry" />
        </mxCell>
        <mxCell id="dbKwE00AMvLlW4GOPXHJ-2" value="SQL-Studiendatenbank" style="text;html=1;align=center;verticalAlign=middle;resizable=0;points=[];autosize=1;fontSize=20;" vertex="1" parent="1">
          <mxGeometry x="160" y="25" width="220" height="30" as="geometry" />
        </mxCell>
        <mxCell id="dbKwE00AMvLlW4GOPXHJ-20" style="edgeStyle=orthogonalEdgeStyle;rounded=0;orthogonalLoop=1;jettySize=auto;html=1;fontSize=20;" edge="1" parent="1" source="dbKwE00AMvLlW4GOPXHJ-3" target="K8pgph4yIL8uZuw2vBNO-3">
          <mxGeometry relative="1" as="geometry" />
        </mxCell>
        <mxCell id="dbKwE00AMvLlW4GOPXHJ-3" value="" style="aspect=fixed;perimeter=ellipsePerimeter;html=1;align=center;shadow=0;dashed=0;fontColor=#4277BB;labelBackgroundColor=#ffffff;fontSize=12;spacingTop=3;image;image=img/lib/ibm/applications/app_server.svg;" vertex="1" parent="1">
          <mxGeometry x="390" y="120" width="60" height="60" as="geometry" />
        </mxCell>
        <mxCell id="dbKwE00AMvLlW4GOPXHJ-4" value="Studien-Webapplikation&lt;br style=&quot;font-size: 20px;&quot;&gt;" style="text;html=1;align=center;verticalAlign=middle;resizable=0;points=[];autosize=1;fontSize=20;" vertex="1" parent="1">
          <mxGeometry x="160" y="110" width="230" height="30" as="geometry" />
        </mxCell>
        <mxCell id="dbKwE00AMvLlW4GOPXHJ-5" value="Device Service" style="text;html=1;align=center;verticalAlign=middle;resizable=0;points=[];autosize=1;fontSize=20;" vertex="1" parent="1">
          <mxGeometry x="660" y="240" width="150" height="30" as="geometry" />
        </mxCell>
        <mxCell id="dbKwE00AMvLlW4GOPXHJ-18" style="edgeStyle=orthogonalEdgeStyle;rounded=0;orthogonalLoop=1;jettySize=auto;html=1;fontSize=20;" edge="1" parent="1" source="dbKwE00AMvLlW4GOPXHJ-6" target="dbKwE00AMvLlW4GOPXHJ-12">
          <mxGeometry relative="1" as="geometry" />
        </mxCell>
        <mxCell id="dbKwE00AMvLlW4GOPXHJ-6" value="" style="aspect=fixed;perimeter=ellipsePerimeter;html=1;align=center;shadow=0;dashed=0;fontColor=#4277BB;labelBackgroundColor=#ffffff;fontSize=12;spacingTop=3;image;image=img/lib/ibm/applications/automation_tools.svg;" vertex="1" parent="1">
          <mxGeometry x="620" y="490" width="80" height="80" as="geometry" />
        </mxCell>
        <mxCell id="dbKwE00AMvLlW4GOPXHJ-7" value="Auto-It" style="text;html=1;align=center;verticalAlign=middle;resizable=0;points=[];autosize=1;fontSize=20;" vertex="1" parent="1">
          <mxGeometry x="710" y="510" width="70" height="30" as="geometry" />
        </mxCell>
        <mxCell id="dbKwE00AMvLlW4GOPXHJ-10" value="Windows-PC&lt;br&gt;" style="text;html=1;align=center;verticalAlign=middle;resizable=0;points=[];autosize=1;fontSize=20;" vertex="1" parent="1">
          <mxGeometry x="100" y="390" width="130" height="30" as="geometry" />
        </mxCell>
        <mxCell id="dbKwE00AMvLlW4GOPXHJ-11" value="Medizinisches Gerät&lt;br&gt;" style="text;html=1;align=center;verticalAlign=middle;resizable=0;points=[];autosize=1;fontSize=20;" vertex="1" parent="1">
          <mxGeometry x="240" y="750" width="200" height="30" as="geometry" />
        </mxCell>
        <mxCell id="dbKwE00AMvLlW4GOPXHJ-19" style="edgeStyle=orthogonalEdgeStyle;rounded=0;orthogonalLoop=1;jettySize=auto;html=1;fontSize=20;" edge="1" parent="1" source="dbKwE00AMvLlW4GOPXHJ-12" target="K8pgph4yIL8uZuw2vBNO-5">
          <mxGeometry relative="1" as="geometry" />
        </mxCell>
        <mxCell id="dbKwE00AMvLlW4GOPXHJ-29" style="edgeStyle=orthogonalEdgeStyle;rounded=0;orthogonalLoop=1;jettySize=auto;html=1;fontSize=20;" edge="1" parent="1" source="dbKwE00AMvLlW4GOPXHJ-12" target="dbKwE00AMvLlW4GOPXHJ-25">
          <mxGeometry relative="1" as="geometry" />
        </mxCell>
        <mxCell id="dbKwE00AMvLlW4GOPXHJ-12" value="" style="aspect=fixed;perimeter=ellipsePerimeter;html=1;align=center;shadow=0;dashed=0;fontColor=#4277BB;labelBackgroundColor=#ffffff;fontSize=12;spacingTop=3;image;image=img/lib/ibm/applications/runtime_services.svg;" vertex="1" parent="1">
          <mxGeometry x="630" y="660" width="60" height="60" as="geometry" />
        </mxCell>
        <mxCell id="dbKwE00AMvLlW4GOPXHJ-13" value="Herstellersoftware&lt;br&gt;" style="text;html=1;align=center;verticalAlign=middle;resizable=0;points=[];autosize=1;fontSize=20;" vertex="1" parent="1">
          <mxGeometry x="570" y="740" width="180" height="30" as="geometry" />
        </mxCell>
        <mxCell id="dbKwE00AMvLlW4GOPXHJ-21" value="Firefox&lt;br&gt;" style="text;html=1;align=center;verticalAlign=middle;resizable=0;points=[];autosize=1;fontSize=20;" vertex="1" parent="1">
          <mxGeometry x="378" y="399" width="80" height="30" as="geometry" />
        </mxCell>
        <mxCell id="dbKwE00AMvLlW4GOPXHJ-24" value="REST API" style="text;html=1;align=center;verticalAlign=middle;resizable=0;points=[];autosize=1;fontSize=20;" vertex="1" parent="1">
          <mxGeometry x="480" y="350" width="110" height="30" as="geometry" />
        </mxCell>
        <mxCell id="dbKwE00AMvLlW4GOPXHJ-30" style="edgeStyle=orthogonalEdgeStyle;rounded=0;orthogonalLoop=1;jettySize=auto;html=1;fontSize=20;" edge="1" parent="1" source="dbKwE00AMvLlW4GOPXHJ-25" target="K8pgph4yIL8uZuw2vBNO-4">
          <mxGeometry relative="1" as="geometry" />
        </mxCell>
        <mxCell id="dbKwE00AMvLlW4GOPXHJ-25" value="" style="aspect=fixed;perimeter=ellipsePerimeter;html=1;align=center;shadow=0;dashed=0;spacingTop=3;image;image=img/lib/active_directory/documents.svg;fontSize=20;" vertex="1" parent="1">
          <mxGeometry x="830" y="399" width="33" height="50" as="geometry" />
        </mxCell>
        <mxCell id="dbKwE00AMvLlW4GOPXHJ-26" value="Results" style="text;html=1;align=center;verticalAlign=middle;resizable=0;points=[];autosize=1;fontSize=20;" vertex="1" parent="1">
          <mxGeometry x="890" y="409" width="80" height="30" as="geometry" />
        </mxCell>
      </root>
    </mxGraphModel>
  </diagram>
</mxfile>
